<svg xmlns="http://www.w3.org/2000/svg" viewBox="0 0 544.93 598.96"><defs><style>.cls-1{fill:#2a2a2a;}</style></defs><title>Asset 1</title><g id="Layer_2" data-name="Layer 2"><g id="Layer_1-2" data-name="Layer 1"><path class="cls-1" d="M508.58.06c-6.2,1.2,14.3,70.1-11.4,122-17.7,35.7-46.7,57.5-78.3,70.4-.8-2.9-1.5-4.8-2-5.1-3.6-2.6-15.2-5-19.3-4.3s-24.1,6.2-27.6,14.8c0,0-13.6-24.5-29.5-38.8s-38.4-20.7-38.4-20.7l-.5-4.8s-8.6-5.7-29.1-5.5c-20.5-.2-29.1,5.5-29.1,5.5l-.5,4.8s-22.4,6.4-38.4,20.7-29.5,38.8-29.5,38.8c-3.6-8.6-23.6-14.1-27.6-14.8s-15.7,1.7-19.3,4.3c-.5.3-1.2,2.2-2,5.1-31.6-12.9-60.6-34.7-78.3-70.4-25.7-51.9-5.2-120.8-11.4-122-17.6-3.3-62.9,133.9-15.2,202.5,29.1,41.9,68.9,64,88.9,73.1a92.09,92.09,0,0,0-1.1,9.4c0,15.4,27.4,26.7,39.2,28.6a117.38,117.38,0,0,1-9.1,28.3c-9.5,20-21.1,34-27.7,54s.4,52.4,16.6,71.2c0,0,4.1-28,9.1-37.5,0,0-2.7,23.8,10.3,43.5s31.1,45.4,32.4,61c0,0,12.3-18.6,13.8-32.5.6-5.5,1.1-10.6,1.3-15.4,1.8,9.2,5.9,24.6,14,33.8,12.2,13.8,28.4,35,31.2,40.3s5.2,13.8,5.2,13.8,3.3-17.2,1.7-26.2c0,0,4.3,3.1,7.6,17.6s-2.9,33.4-2.9,33.4,16-5.5,20.7-12.6c15.8-17.6,25.5-38.4,25.5-38.4-1.7,9.1,1.7,26.2,1.7,26.2s2.4-8.6,5.2-13.8,19.1-26.4,31.2-40.3c8.1-9.2,12.2-24.6,14-33.8.2,4.8.6,10,1.3,15.4,1.6,13.9,13.8,32.5,13.8,32.5,1.3-15.6,19.4-41.3,32.4-61s10.3-43.5,10.3-43.5c4.9,9.5,9.1,37.5,9.1,37.5,16.2-18.7,23.2-51.1,16.6-71.2s-18.2-34-27.7-54a122,122,0,0,1-9.1-28.3c11.9-1.9,39.2-13.2,39.2-28.6a92.09,92.09,0,0,0-1.1-9.4c20-9.1,59.8-31.1,88.9-73.1C571.48,134,526.18-3.34,508.58.06Z"/></g></g></svg>